# xmcd
#
# Track frame offsets:
#	150
#	8327
#	27332
#	62166
#	81583
#	103629
#	124508
#	149020
#	171369
#	185120
#	202110
#	226879
#	243739
#
# Disc length: 3565 seconds
#
# Revision: 1
# Processed by: cddbd v1.5.2PL0 Copyright (c) Steve Scherf et al.
# Submitted via: EZCDAudioConverter 7.1.7.1
#
DISCID=bb0deb0d
DTITLE=谭咏麟 - 银河岁月演唱会Live CD Disc4
DYEAR=2015
DGENRE=
TTITLE0=谭咏麟 - 朋友
TTITLE1=陈慧娴 - 谁可改变
TTITLE2=谭咏麟／陈奕迅 - Medley：爱情陷阱／重口味
TTITLE3=陈奕迅 - 再等几天
TTITLE4=谭咏麟／李克勤 - 帮我欺骗我
TTITLE5=李克勤 - 爱的逃兵
TTITLE6=谭咏麟／张学友 - 谁可改变
TTITLE7=谭咏麟／陈慧琳 - 雾之恋
TTITLE8=陈慧琳 - 花花宇宙
TTITLE9=温拿乐队 - Sha La La La
TTITLE10=温拿乐队 - 千载不变
TTITLE11=温拿乐队 - 小苹果
TTITLE12=谭咏麟／关楚耀 - 一个永远不好的伤口
EXTD=
EXTT0=
EXTT1=
EXTT2=
EXTT3=
EXTT4=
EXTT5=
EXTT6=
EXTT7=
EXTT8=
EXTT9=
EXTT10=
EXTT11=
EXTT12=
PLAYORDER=
